<svg xmlns="http://www.w3.org/2000/svg" xmlns:xlink="http://www.w3.org/1999/xlink" fill="none" version="1.1" width="256" height="256" viewBox="0 0 256 256"><defs><clipPath id="master_svg0_2_0"><rect x="0" y="0" width="256" height="256" rx="0"/></clipPath></defs><g clip-path="url(#master_svg0_2_0)"><rect x="0" y="0" width="256" height="256" rx="40" fill="#000000" fill-opacity="1" style="mix-blend-mode:passthrough"/><path d="M75,203.51846L75,49.9853427L116.44620499999999,48L116.44620499999999,123.663597Q116.44620499999999,144.61998,119.973545,148.14947999999998Q121.957672,149.91422,125.264553,149.91422Q131.878307,149.91422,137.1693,141.311081Q142.46032,132.707924,142.46032,118.589943L142.46032,49.9853427L181.48147,48L181.48147,139.766922Q181.48147,149.25245,187.87477,149.25245Q195.37036,149.25245,196.69311,126.531311L200,126.751892Q199.11817000000002,146.164139,192.72487999999998,153.44371999999998Q186.33157,160.72332,172.773361,160.72332Q159.215172,160.72332,151.940025,154.7673Q144.664894,148.81126,142.46032,138.88455199999999Q138.93298,148.59067,131.657852,154.7673Q124.382713,160.94391000000002,115.674606,160.94391000000002Q106.966492,160.94391000000002,100.68342200000001,157.30410999999998Q94.400354,153.66432,89.109348,142.19345099999998L88.227513,142.85523999999998L89.109344,169C89.109344,180,97,182,97,189.5C97,199.5,82.3925495,205.06291,75,203.51846Z" fill="#39FF14" fill-opacity="1" style="mix-blend-mode:passthrough"/></g></svg>